# xmcd CD database file
#
# Track frame offsets:
#	150
#	13440
#	27007
#	45100
#	58505
#	70730
#	85725
#	98870
#	105062
#	112800
#	126630
#	135550
#	147775
#
# Disc length: 2168 seconds
#
# Revision: 2
# Processed by: cddbd v1.5.2PL0 Copyright (c) Steve Scherf et al.
# Submitted via: CDex 2.12
#
DISCID=9f08760d
DTITLE=Poison Idea - Dysfunctional Songs For Codependent Addicts
DYEAR=1993
DGENRE=Punk Rock
TTITLE0=Hangover Heart Attack
TTITLE1=Drug Revival
TTITLE2=Ballad Of A Pre-Op
TTITLE3=Getting The Fear
TTITLE4=4AM
TTITLE5=Burned For The Last Time
TTITLE6=Jailhouse Stomp
TTITLE7=Laughing Boy [live]
TTITLE8=Typical [live]
TTITLE9=Lifestyle [live]
TTITLE10=Thorn In My Side [live]
TTITLE11=Push The Button [live]
TTITLE12=Death Of An Idiot Blues [Thee Idiot mix]
EXTD=YEAR: 1993
EXTT0=
EXTT1=
EXTT2=
EXTT3=
EXTT4=
EXTT5=
EXTT6=
EXTT7=
EXTT8=
EXTT9=
EXTT10=
EXTT11=
EXTT12=
PLAYORDER=
